<mxfile host="65bd71144e">
    <diagram id="i7zVkpHAT6BnnBe5AMbO" name="Design Posts">
        <mxGraphModel dx="659" dy="530" grid="1" gridSize="10" guides="1" tooltips="1" connect="1" arrows="1" fold="1" page="1" pageScale="1" pageWidth="850" pageHeight="1100" math="0" shadow="0">
            <root>
                <mxCell id="0"/>
                <mxCell id="1" parent="0"/>
                <mxCell id="2" value="&lt;b&gt;&lt;font style=&quot;font-size: 30px&quot;&gt;POSTS SERVICE&lt;/font&gt;&lt;/b&gt;" style="rounded=0;whiteSpace=wrap;html=1;fillColor=#fff2cc;strokeColor=#d6b656;shadow=1;" parent="1" vertex="1">
                    <mxGeometry x="30" y="120" width="630" height="50" as="geometry"/>
                </mxCell>
                <mxCell id="4" value="&lt;b style=&quot;font-size: 12px&quot;&gt;&lt;font style=&quot;font-size: 12px&quot;&gt;PATH&lt;/font&gt;&lt;/b&gt;" style="rounded=0;whiteSpace=wrap;html=1;fillColor=#dae8fc;strokeColor=#6c8ebf;shadow=1;fontSize=12;" parent="1" vertex="1">
                    <mxGeometry x="30" y="180" width="150" height="40" as="geometry"/>
                </mxCell>
                <mxCell id="5" value="&lt;b style=&quot;font-size: 12px&quot;&gt;&lt;font style=&quot;font-size: 12px&quot;&gt;METHOD&lt;/font&gt;&lt;/b&gt;" style="rounded=0;whiteSpace=wrap;html=1;fillColor=#dae8fc;strokeColor=#6c8ebf;shadow=1;fontSize=12;" parent="1" vertex="1">
                    <mxGeometry x="190" y="180" width="150" height="40" as="geometry"/>
                </mxCell>
                <mxCell id="6" value="&lt;b style=&quot;font-size: 12px&quot;&gt;&lt;font style=&quot;font-size: 12px&quot;&gt;BODY&lt;/font&gt;&lt;/b&gt;" style="rounded=0;whiteSpace=wrap;html=1;fillColor=#dae8fc;strokeColor=#6c8ebf;shadow=1;fontSize=12;" parent="1" vertex="1">
                    <mxGeometry x="350" y="180" width="150" height="40" as="geometry"/>
                </mxCell>
                <mxCell id="7" value="&lt;b style=&quot;font-size: 12px&quot;&gt;&lt;font style=&quot;font-size: 12px&quot;&gt;GOAL&lt;/font&gt;&lt;/b&gt;" style="rounded=0;whiteSpace=wrap;html=1;fillColor=#dae8fc;strokeColor=#6c8ebf;shadow=1;fontSize=12;" parent="1" vertex="1">
                    <mxGeometry x="510" y="180" width="150" height="40" as="geometry"/>
                </mxCell>
                <mxCell id="19" style="edgeStyle=none;html=1;exitX=1;exitY=0.5;exitDx=0;exitDy=0;entryX=0;entryY=0.5;entryDx=0;entryDy=0;fontSize=30;" parent="1" source="10" target="11" edge="1">
                    <mxGeometry relative="1" as="geometry"/>
                </mxCell>
                <mxCell id="10" value="&lt;b style=&quot;font-size: 12px&quot;&gt;&lt;font style=&quot;font-size: 12px&quot;&gt;/posts&lt;/font&gt;&lt;/b&gt;" style="rounded=0;whiteSpace=wrap;html=1;fillColor=#f5f5f5;strokeColor=#666666;shadow=1;fontSize=12;fontColor=#333333;" parent="1" vertex="1">
                    <mxGeometry x="30" y="240" width="150" height="40" as="geometry"/>
                </mxCell>
                <mxCell id="20" style="edgeStyle=none;html=1;exitX=1;exitY=0.5;exitDx=0;exitDy=0;entryX=0;entryY=0.5;entryDx=0;entryDy=0;fontSize=30;" parent="1" source="11" target="12" edge="1">
                    <mxGeometry relative="1" as="geometry"/>
                </mxCell>
                <mxCell id="11" value="&lt;b style=&quot;font-size: 12px&quot;&gt;&lt;font style=&quot;font-size: 12px&quot;&gt;POST&lt;/font&gt;&lt;/b&gt;" style="rounded=0;whiteSpace=wrap;html=1;fillColor=#f5f5f5;strokeColor=#666666;shadow=1;fontSize=12;fontColor=#333333;" parent="1" vertex="1">
                    <mxGeometry x="190" y="240" width="150" height="40" as="geometry"/>
                </mxCell>
                <mxCell id="21" style="edgeStyle=none;html=1;exitX=1;exitY=0.5;exitDx=0;exitDy=0;entryX=0;entryY=0.5;entryDx=0;entryDy=0;fontSize=30;" parent="1" source="12" target="13" edge="1">
                    <mxGeometry relative="1" as="geometry"/>
                </mxCell>
                <mxCell id="12" value="&lt;b&gt;{ title: string }&lt;/b&gt;" style="rounded=0;whiteSpace=wrap;html=1;fillColor=#f5f5f5;strokeColor=#666666;shadow=1;fontSize=12;fontColor=#333333;" parent="1" vertex="1">
                    <mxGeometry x="350" y="240" width="150" height="40" as="geometry"/>
                </mxCell>
                <mxCell id="13" value="&lt;b style=&quot;font-size: 12px&quot;&gt;&lt;font style=&quot;font-size: 12px&quot;&gt;Create a new post&lt;/font&gt;&lt;/b&gt;" style="rounded=0;whiteSpace=wrap;html=1;fillColor=#f5f5f5;strokeColor=#666666;shadow=1;fontSize=12;fontColor=#333333;" parent="1" vertex="1">
                    <mxGeometry x="510" y="240" width="150" height="40" as="geometry"/>
                </mxCell>
                <mxCell id="14" value="&lt;b style=&quot;font-size: 12px&quot;&gt;&lt;font style=&quot;font-size: 12px&quot;&gt;/posts&lt;/font&gt;&lt;/b&gt;" style="rounded=0;whiteSpace=wrap;html=1;fillColor=#f5f5f5;strokeColor=#666666;shadow=1;fontSize=12;fontColor=#333333;" parent="1" vertex="1">
                    <mxGeometry x="30" y="290" width="150" height="40" as="geometry"/>
                </mxCell>
                <mxCell id="15" value="&lt;b style=&quot;font-size: 12px&quot;&gt;&lt;font style=&quot;font-size: 12px&quot;&gt;GET&lt;/font&gt;&lt;/b&gt;" style="rounded=0;whiteSpace=wrap;html=1;fillColor=#f5f5f5;strokeColor=#666666;shadow=1;fontSize=12;fontColor=#333333;" parent="1" vertex="1">
                    <mxGeometry x="190" y="290" width="150" height="40" as="geometry"/>
                </mxCell>
                <mxCell id="16" value="&lt;b&gt;-&lt;/b&gt;" style="rounded=0;whiteSpace=wrap;html=1;fillColor=#f5f5f5;strokeColor=#666666;shadow=1;fontSize=12;fontColor=#333333;" parent="1" vertex="1">
                    <mxGeometry x="350" y="290" width="150" height="40" as="geometry"/>
                </mxCell>
                <mxCell id="17" value="&lt;b style=&quot;font-size: 12px&quot;&gt;&lt;font style=&quot;font-size: 12px&quot;&gt;Retrieve all posts&lt;/font&gt;&lt;/b&gt;" style="rounded=0;whiteSpace=wrap;html=1;fillColor=#f5f5f5;strokeColor=#666666;shadow=1;fontSize=12;fontColor=#333333;" parent="1" vertex="1">
                    <mxGeometry x="510" y="290" width="150" height="40" as="geometry"/>
                </mxCell>
            </root>
        </mxGraphModel>
    </diagram>
    <diagram id="hjS_bEfh8e_4Wh1DjxNP" name="Design Comments">
        <mxGraphModel dx="659" dy="530" grid="1" gridSize="10" guides="1" tooltips="1" connect="1" arrows="1" fold="1" page="1" pageScale="1" pageWidth="850" pageHeight="1100" math="0" shadow="0">
            <root>
                <mxCell id="OTUta2fjp7ZzhYyPHG4K-0"/>
                <mxCell id="OTUta2fjp7ZzhYyPHG4K-1" parent="OTUta2fjp7ZzhYyPHG4K-0"/>
                <mxCell id="M0rq3d5LtCeBFqG4h2mT-0" value="&lt;b&gt;&lt;font style=&quot;font-size: 30px&quot;&gt;COMMENTS SERVICE&lt;/font&gt;&lt;/b&gt;" style="rounded=0;whiteSpace=wrap;html=1;fillColor=#fff2cc;strokeColor=#d6b656;shadow=1;" vertex="1" parent="OTUta2fjp7ZzhYyPHG4K-1">
                    <mxGeometry x="30" y="120" width="710" height="50" as="geometry"/>
                </mxCell>
                <mxCell id="M0rq3d5LtCeBFqG4h2mT-1" value="&lt;b style=&quot;font-size: 12px&quot;&gt;&lt;font style=&quot;font-size: 12px&quot;&gt;PATH&lt;/font&gt;&lt;/b&gt;" style="rounded=0;whiteSpace=wrap;html=1;fillColor=#dae8fc;strokeColor=#6c8ebf;shadow=1;fontSize=12;" vertex="1" parent="OTUta2fjp7ZzhYyPHG4K-1">
                    <mxGeometry x="30" y="180" width="150" height="40" as="geometry"/>
                </mxCell>
                <mxCell id="M0rq3d5LtCeBFqG4h2mT-2" value="&lt;b style=&quot;font-size: 12px&quot;&gt;&lt;font style=&quot;font-size: 12px&quot;&gt;METHOD&lt;/font&gt;&lt;/b&gt;" style="rounded=0;whiteSpace=wrap;html=1;fillColor=#dae8fc;strokeColor=#6c8ebf;shadow=1;fontSize=12;" vertex="1" parent="OTUta2fjp7ZzhYyPHG4K-1">
                    <mxGeometry x="190" y="180" width="150" height="40" as="geometry"/>
                </mxCell>
                <mxCell id="M0rq3d5LtCeBFqG4h2mT-3" value="&lt;b style=&quot;font-size: 12px&quot;&gt;&lt;font style=&quot;font-size: 12px&quot;&gt;BODY&lt;/font&gt;&lt;/b&gt;" style="rounded=0;whiteSpace=wrap;html=1;fillColor=#dae8fc;strokeColor=#6c8ebf;shadow=1;fontSize=12;" vertex="1" parent="OTUta2fjp7ZzhYyPHG4K-1">
                    <mxGeometry x="350" y="180" width="150" height="40" as="geometry"/>
                </mxCell>
                <mxCell id="M0rq3d5LtCeBFqG4h2mT-4" value="&lt;b style=&quot;font-size: 12px&quot;&gt;&lt;font style=&quot;font-size: 12px&quot;&gt;GOAL&lt;/font&gt;&lt;/b&gt;" style="rounded=0;whiteSpace=wrap;html=1;fillColor=#dae8fc;strokeColor=#6c8ebf;shadow=1;fontSize=12;" vertex="1" parent="OTUta2fjp7ZzhYyPHG4K-1">
                    <mxGeometry x="510" y="180" width="230" height="40" as="geometry"/>
                </mxCell>
                <mxCell id="M0rq3d5LtCeBFqG4h2mT-5" style="edgeStyle=none;html=1;exitX=1;exitY=0.5;exitDx=0;exitDy=0;entryX=0;entryY=0.5;entryDx=0;entryDy=0;fontSize=30;" edge="1" parent="OTUta2fjp7ZzhYyPHG4K-1" source="M0rq3d5LtCeBFqG4h2mT-6" target="M0rq3d5LtCeBFqG4h2mT-8">
                    <mxGeometry relative="1" as="geometry"/>
                </mxCell>
                <mxCell id="M0rq3d5LtCeBFqG4h2mT-6" value="&lt;b style=&quot;font-size: 12px&quot;&gt;&lt;font style=&quot;font-size: 12px&quot;&gt;/posts/:id/comments&lt;/font&gt;&lt;/b&gt;" style="rounded=0;whiteSpace=wrap;html=1;fillColor=#f5f5f5;strokeColor=#666666;shadow=1;fontSize=12;fontColor=#333333;" vertex="1" parent="OTUta2fjp7ZzhYyPHG4K-1">
                    <mxGeometry x="30" y="240" width="150" height="40" as="geometry"/>
                </mxCell>
                <mxCell id="M0rq3d5LtCeBFqG4h2mT-7" style="edgeStyle=none;html=1;exitX=1;exitY=0.5;exitDx=0;exitDy=0;entryX=0;entryY=0.5;entryDx=0;entryDy=0;fontSize=30;" edge="1" parent="OTUta2fjp7ZzhYyPHG4K-1" source="M0rq3d5LtCeBFqG4h2mT-8" target="M0rq3d5LtCeBFqG4h2mT-10">
                    <mxGeometry relative="1" as="geometry"/>
                </mxCell>
                <mxCell id="M0rq3d5LtCeBFqG4h2mT-8" value="&lt;b style=&quot;font-size: 12px&quot;&gt;&lt;font style=&quot;font-size: 12px&quot;&gt;POST&lt;/font&gt;&lt;/b&gt;" style="rounded=0;whiteSpace=wrap;html=1;fillColor=#f5f5f5;strokeColor=#666666;shadow=1;fontSize=12;fontColor=#333333;" vertex="1" parent="OTUta2fjp7ZzhYyPHG4K-1">
                    <mxGeometry x="190" y="240" width="150" height="40" as="geometry"/>
                </mxCell>
                <mxCell id="M0rq3d5LtCeBFqG4h2mT-9" style="edgeStyle=none;html=1;exitX=1;exitY=0.5;exitDx=0;exitDy=0;entryX=0;entryY=0.5;entryDx=0;entryDy=0;fontSize=30;" edge="1" parent="OTUta2fjp7ZzhYyPHG4K-1" source="M0rq3d5LtCeBFqG4h2mT-10" target="M0rq3d5LtCeBFqG4h2mT-11">
                    <mxGeometry relative="1" as="geometry"/>
                </mxCell>
                <mxCell id="M0rq3d5LtCeBFqG4h2mT-10" value="&lt;b&gt;{ title: string }&lt;/b&gt;" style="rounded=0;whiteSpace=wrap;html=1;fillColor=#f5f5f5;strokeColor=#666666;shadow=1;fontSize=12;fontColor=#333333;" vertex="1" parent="OTUta2fjp7ZzhYyPHG4K-1">
                    <mxGeometry x="350" y="240" width="150" height="40" as="geometry"/>
                </mxCell>
                <mxCell id="M0rq3d5LtCeBFqG4h2mT-11" value="&lt;b style=&quot;font-size: 12px&quot;&gt;&lt;font style=&quot;font-size: 12px&quot;&gt;Create a comment associated with the given Post ID&lt;/font&gt;&lt;/b&gt;" style="rounded=0;whiteSpace=wrap;html=1;fillColor=#f5f5f5;strokeColor=#666666;shadow=1;fontSize=12;fontColor=#333333;" vertex="1" parent="OTUta2fjp7ZzhYyPHG4K-1">
                    <mxGeometry x="510" y="240" width="230" height="40" as="geometry"/>
                </mxCell>
                <mxCell id="M0rq3d5LtCeBFqG4h2mT-12" value="&lt;b&gt;/posts/:id/comments&lt;/b&gt;" style="rounded=0;whiteSpace=wrap;html=1;fillColor=#f5f5f5;strokeColor=#666666;shadow=1;fontSize=12;fontColor=#333333;" vertex="1" parent="OTUta2fjp7ZzhYyPHG4K-1">
                    <mxGeometry x="30" y="290" width="150" height="40" as="geometry"/>
                </mxCell>
                <mxCell id="M0rq3d5LtCeBFqG4h2mT-13" value="&lt;b style=&quot;font-size: 12px&quot;&gt;&lt;font style=&quot;font-size: 12px&quot;&gt;GET&lt;/font&gt;&lt;/b&gt;" style="rounded=0;whiteSpace=wrap;html=1;fillColor=#f5f5f5;strokeColor=#666666;shadow=1;fontSize=12;fontColor=#333333;" vertex="1" parent="OTUta2fjp7ZzhYyPHG4K-1">
                    <mxGeometry x="190" y="290" width="150" height="40" as="geometry"/>
                </mxCell>
                <mxCell id="M0rq3d5LtCeBFqG4h2mT-14" value="&lt;b&gt;-&lt;/b&gt;" style="rounded=0;whiteSpace=wrap;html=1;fillColor=#f5f5f5;strokeColor=#666666;shadow=1;fontSize=12;fontColor=#333333;" vertex="1" parent="OTUta2fjp7ZzhYyPHG4K-1">
                    <mxGeometry x="350" y="290" width="150" height="40" as="geometry"/>
                </mxCell>
                <mxCell id="M0rq3d5LtCeBFqG4h2mT-15" value="&lt;b style=&quot;font-size: 12px&quot;&gt;&lt;font style=&quot;font-size: 12px&quot;&gt;Retrieve all comments associate with the given Post ID&lt;/font&gt;&lt;/b&gt;" style="rounded=0;whiteSpace=wrap;html=1;fillColor=#f5f5f5;strokeColor=#666666;shadow=1;fontSize=12;fontColor=#333333;" vertex="1" parent="OTUta2fjp7ZzhYyPHG4K-1">
                    <mxGeometry x="510" y="290" width="230" height="40" as="geometry"/>
                </mxCell>
            </root>
        </mxGraphModel>
    </diagram>
    <diagram id="iL7Y-_YWf46etE7Bg_LE" name="Event Bus">
        <mxGraphModel dx="659" dy="530" grid="1" gridSize="10" guides="1" tooltips="1" connect="1" arrows="1" fold="1" page="1" pageScale="1" pageWidth="850" pageHeight="1100" math="0" shadow="0">
            <root>
                <mxCell id="hgOFOlrcBhgOyQHBhM-E-0"/>
                <mxCell id="hgOFOlrcBhgOyQHBhM-E-1" parent="hgOFOlrcBhgOyQHBhM-E-0"/>
                <mxCell id="hgOFOlrcBhgOyQHBhM-E-7" value="" style="rounded=0;whiteSpace=wrap;html=1;fontSize=21;fillColor=#fad7ac;strokeColor=#b46504;" vertex="1" parent="hgOFOlrcBhgOyQHBhM-E-1">
                    <mxGeometry x="230" y="65" width="490" height="60" as="geometry"/>
                </mxCell>
                <mxCell id="hgOFOlrcBhgOyQHBhM-E-2" value="" style="rounded=0;whiteSpace=wrap;html=1;fillColor=#e1d5e7;strokeColor=#9673a6;" vertex="1" parent="hgOFOlrcBhgOyQHBhM-E-1">
                    <mxGeometry x="520" y="270" width="240" height="360" as="geometry"/>
                </mxCell>
                <mxCell id="hgOFOlrcBhgOyQHBhM-E-4" value="" style="rounded=0;whiteSpace=wrap;html=1;fillColor=#b0e3e6;strokeColor=#0e8088;" vertex="1" parent="hgOFOlrcBhgOyQHBhM-E-1">
                    <mxGeometry x="520" y="270" width="240" height="50" as="geometry"/>
                </mxCell>
                <mxCell id="hgOFOlrcBhgOyQHBhM-E-3" value="Event Bus" style="text;html=1;strokeColor=none;fillColor=none;align=center;verticalAlign=middle;whiteSpace=wrap;rounded=0;fontSize=21;" vertex="1" parent="hgOFOlrcBhgOyQHBhM-E-1">
                    <mxGeometry x="580" y="270" width="110" height="50" as="geometry"/>
                </mxCell>
                <mxCell id="hgOFOlrcBhgOyQHBhM-E-6" value="Receives events and publishes them to listeners" style="text;html=1;strokeColor=none;fillColor=none;align=center;verticalAlign=middle;whiteSpace=wrap;rounded=0;fontSize=21;" vertex="1" parent="hgOFOlrcBhgOyQHBhM-E-1">
                    <mxGeometry x="230" y="80" width="500" height="30" as="geometry"/>
                </mxCell>
                <mxCell id="hgOFOlrcBhgOyQHBhM-E-8" value="" style="rounded=0;whiteSpace=wrap;html=1;" vertex="1" parent="hgOFOlrcBhgOyQHBhM-E-1">
                    <mxGeometry x="110" y="270" width="240" height="90" as="geometry"/>
                </mxCell>
                <mxCell id="hgOFOlrcBhgOyQHBhM-E-9" value="Posts Service" style="text;html=1;strokeColor=none;fillColor=none;align=center;verticalAlign=middle;whiteSpace=wrap;rounded=0;fontSize=18;" vertex="1" parent="hgOFOlrcBhgOyQHBhM-E-1">
                    <mxGeometry x="140" y="280" width="160" height="30" as="geometry"/>
                </mxCell>
                <mxCell id="hgOFOlrcBhgOyQHBhM-E-10" value="POST / events" style="text;html=1;strokeColor=none;fillColor=none;align=center;verticalAlign=middle;whiteSpace=wrap;rounded=0;fontSize=21;" vertex="1" parent="hgOFOlrcBhgOyQHBhM-E-1">
                    <mxGeometry x="150" y="320" width="160" height="30" as="geometry"/>
                </mxCell>
                <mxCell id="hgOFOlrcBhgOyQHBhM-E-14" value="" style="rounded=0;whiteSpace=wrap;html=1;" vertex="1" parent="hgOFOlrcBhgOyQHBhM-E-1">
                    <mxGeometry x="110" y="390" width="240" height="90" as="geometry"/>
                </mxCell>
                <mxCell id="hgOFOlrcBhgOyQHBhM-E-15" value="Comments Service" style="text;html=1;strokeColor=none;fillColor=none;align=center;verticalAlign=middle;whiteSpace=wrap;rounded=0;fontSize=18;" vertex="1" parent="hgOFOlrcBhgOyQHBhM-E-1">
                    <mxGeometry x="140" y="400" width="160" height="30" as="geometry"/>
                </mxCell>
                <mxCell id="hgOFOlrcBhgOyQHBhM-E-16" value="POST / events" style="text;html=1;strokeColor=none;fillColor=none;align=center;verticalAlign=middle;whiteSpace=wrap;rounded=0;fontSize=21;" vertex="1" parent="hgOFOlrcBhgOyQHBhM-E-1">
                    <mxGeometry x="150" y="440" width="160" height="30" as="geometry"/>
                </mxCell>
                <mxCell id="hgOFOlrcBhgOyQHBhM-E-17" value="" style="rounded=0;whiteSpace=wrap;html=1;" vertex="1" parent="hgOFOlrcBhgOyQHBhM-E-1">
                    <mxGeometry x="110" y="520" width="240" height="90" as="geometry"/>
                </mxCell>
                <mxCell id="hgOFOlrcBhgOyQHBhM-E-18" value="Query Service" style="text;html=1;strokeColor=none;fillColor=none;align=center;verticalAlign=middle;whiteSpace=wrap;rounded=0;fontSize=18;" vertex="1" parent="hgOFOlrcBhgOyQHBhM-E-1">
                    <mxGeometry x="140" y="530" width="160" height="30" as="geometry"/>
                </mxCell>
                <mxCell id="hgOFOlrcBhgOyQHBhM-E-19" value="POST / events" style="text;html=1;strokeColor=none;fillColor=none;align=center;verticalAlign=middle;whiteSpace=wrap;rounded=0;fontSize=21;" vertex="1" parent="hgOFOlrcBhgOyQHBhM-E-1">
                    <mxGeometry x="150" y="570" width="160" height="30" as="geometry"/>
                </mxCell>
                <mxCell id="hgOFOlrcBhgOyQHBhM-E-20" value="" style="rounded=0;whiteSpace=wrap;html=1;" vertex="1" parent="hgOFOlrcBhgOyQHBhM-E-1">
                    <mxGeometry x="520" y="350" width="170" height="50" as="geometry"/>
                </mxCell>
                <mxCell id="hgOFOlrcBhgOyQHBhM-E-21" value="POST / events" style="text;html=1;strokeColor=none;fillColor=none;align=center;verticalAlign=middle;whiteSpace=wrap;rounded=0;fontSize=21;" vertex="1" parent="hgOFOlrcBhgOyQHBhM-E-1">
                    <mxGeometry x="520" y="360" width="160" height="30" as="geometry"/>
                </mxCell>
                <mxCell id="hgOFOlrcBhgOyQHBhM-E-23" style="edgeStyle=none;html=1;exitX=1;exitY=0.5;exitDx=0;exitDy=0;fontSize=18;" edge="1" parent="hgOFOlrcBhgOyQHBhM-E-1" source="hgOFOlrcBhgOyQHBhM-E-22">
                    <mxGeometry relative="1" as="geometry">
                        <mxPoint x="350" y="760" as="targetPoint"/>
                    </mxGeometry>
                </mxCell>
                <mxCell id="hgOFOlrcBhgOyQHBhM-E-24" value="" style="rounded=0;whiteSpace=wrap;html=1;" vertex="1" parent="hgOFOlrcBhgOyQHBhM-E-1">
                    <mxGeometry x="80" y="690" width="240" height="140" as="geometry"/>
                </mxCell>
                <mxCell id="hgOFOlrcBhgOyQHBhM-E-22" value="adding a new route to the Post Service, Comments Service, Query Service" style="text;html=1;strokeColor=none;fillColor=none;align=center;verticalAlign=middle;whiteSpace=wrap;rounded=0;fontSize=18;" vertex="1" parent="hgOFOlrcBhgOyQHBhM-E-1">
                    <mxGeometry x="100" y="690" width="180" height="140" as="geometry"/>
                </mxCell>
                <mxCell id="hgOFOlrcBhgOyQHBhM-E-25" value="" style="rounded=0;whiteSpace=wrap;html=1;" vertex="1" parent="hgOFOlrcBhgOyQHBhM-E-1">
                    <mxGeometry x="520" y="210" width="240" height="50" as="geometry"/>
                </mxCell>
                <mxCell id="hgOFOlrcBhgOyQHBhM-E-27" value="a plain expressjs application" style="text;html=1;strokeColor=none;fillColor=none;align=center;verticalAlign=middle;whiteSpace=wrap;rounded=0;fontSize=21;" vertex="1" parent="hgOFOlrcBhgOyQHBhM-E-1">
                    <mxGeometry x="520" y="220" width="240" height="30" as="geometry"/>
                </mxCell>
                <mxCell id="hgOFOlrcBhgOyQHBhM-E-28" value="" style="rounded=0;whiteSpace=wrap;html=1;" vertex="1" parent="hgOFOlrcBhgOyQHBhM-E-1">
                    <mxGeometry x="530" y="420" width="170" height="40" as="geometry"/>
                </mxCell>
                <mxCell id="hgOFOlrcBhgOyQHBhM-E-29" value="&lt;font style=&quot;font-size: 14px&quot;&gt;POST to localhost:4000&lt;/font&gt;" style="text;html=1;strokeColor=none;fillColor=none;align=center;verticalAlign=middle;whiteSpace=wrap;rounded=0;fontSize=21;" vertex="1" parent="hgOFOlrcBhgOyQHBhM-E-1">
                    <mxGeometry x="535" y="425" width="160" height="30" as="geometry"/>
                </mxCell>
                <mxCell id="hgOFOlrcBhgOyQHBhM-E-30" value="" style="rounded=0;whiteSpace=wrap;html=1;" vertex="1" parent="hgOFOlrcBhgOyQHBhM-E-1">
                    <mxGeometry x="530" y="460" width="170" height="40" as="geometry"/>
                </mxCell>
                <mxCell id="hgOFOlrcBhgOyQHBhM-E-31" value="&lt;font style=&quot;font-size: 14px&quot;&gt;POST to localhost:4000&lt;/font&gt;" style="text;html=1;strokeColor=none;fillColor=none;align=center;verticalAlign=middle;whiteSpace=wrap;rounded=0;fontSize=21;" vertex="1" parent="hgOFOlrcBhgOyQHBhM-E-1">
                    <mxGeometry x="535" y="465" width="160" height="30" as="geometry"/>
                </mxCell>
            </root>
        </mxGraphModel>
    </diagram>
</mxfile>